<?xml version="1.0" encoding="UTF-8" standalone="no" ?>
<!DOCTYPE svg PUBLIC "-//W3C//DTD SVG 1.1//EN" "http://www.w3.org/Graphics/SVG/1.1/DTD/svg11.dtd">
<svg xmlns="http://www.w3.org/2000/svg" xmlns:xlink="http://www.w3.org/1999/xlink" version="1.1" width="1080" height="1080" viewBox="0 0 1080 1080" xml:space="preserve">
<desc>Created with Fabric.js 5.2.4</desc>
<defs>
</defs>
<g transform="matrix(1 0 0 1 540 540)" id="be794005-f6a4-4184-8b85-c39ec616becd"  >
<rect style="stroke: none; stroke-width: 1; stroke-dasharray: none; stroke-linecap: butt; stroke-dashoffset: 0; stroke-linejoin: miter; stroke-miterlimit: 4; fill: rgb(255,255,255); fill-rule: nonzero; opacity: 1; visibility: hidden;" vector-effect="non-scaling-stroke"  x="-540" y="-540" rx="0" ry="0" width="1080" height="1080" />
</g>
<g transform="matrix(1 0 0 1 540 540)" id="f5c381e9-3e67-4181-84a8-f11c4607afa9"  >
</g>
<g transform="matrix(1 0 0 1 446.95 570.28)"  >
<path style="stroke: none; stroke-width: 1; stroke-dasharray: none; stroke-linecap: butt; stroke-dashoffset: 0; stroke-linejoin: miter; stroke-miterlimit: 4; fill: rgb(255,255,255); fill-rule: nonzero; opacity: 1;" vector-effect="non-scaling-stroke"  transform=" translate(-183.35, -106)" d="M 285.4 68 L 311.7 66.3 C 312.3 70.6 313.4 73.8 315.2 76.1 C 318.09999999999997 79.69999999999999 322.09999999999997 81.5 327.4 81.5 C 331.29999999999995 81.5 334.4 80.6 336.5 78.7 C 338.5 77.2 339.7 74.8 339.7 72.3 C 339.7 69.89999999999999 338.59999999999997 67.6 336.7 66.1 C 334.7 64.3 330 62.49999999999999 322.59999999999997 60.89999999999999 C 310.49999999999994 58.19999999999999 301.79999999999995 54.599999999999994 296.7 49.99999999999999 C 291.59999999999997 45.699999999999996 288.7 39.39999999999999 288.9 32.69999999999999 C 288.9 28.099999999999987 290.29999999999995 23.49999999999999 292.9 19.69999999999999 C 295.9 15.399999999999988 300 11.99999999999999 304.9 10.099999999999989 C 310.2 7.799999999999989 317.59999999999997 6.599999999999989 326.9 6.599999999999989 C 338.29999999999995 6.599999999999989 347 8.699999999999989 353 12.99999999999999 C 359 17.19999999999999 362.6 23.99999999999999 363.7 33.29999999999999 L 337.7 34.79999999999999 C 337 30.79999999999999 335.59999999999997 27.89999999999999 333.3 25.99999999999999 C 331.00000000000006 24.099999999999987 328 23.19999999999999 324.1 23.19999999999999 C 320.90000000000003 23.19999999999999 318.5 23.899999999999988 316.90000000000003 25.19999999999999 C 315.40000000000003 26.399999999999988 314.40000000000003 28.19999999999999 314.50000000000006 30.19999999999999 C 314.50000000000006 31.69999999999999 315.30000000000007 33.09999999999999 316.50000000000006 33.999999999999986 C 317.80000000000007 35.19999999999999 320.90000000000003 36.29999999999998 325.80000000000007 37.29999999999998 C 337.9000000000001 39.899999999999984 346.50000000000006 42.499999999999986 351.80000000000007 45.19999999999998 C 357.1000000000001 47.899999999999984 360.9000000000001 51.19999999999998 363.20000000000005 55.09999999999998 C 365.6 59.09999999999998 366.80000000000007 63.69999999999998 366.70000000000005 68.39999999999998 C 366.70000000000005 73.99999999999997 365.1 79.59999999999998 361.90000000000003 84.29999999999998 C 358.6 89.19999999999999 354.00000000000006 92.99999999999999 348.6 95.29999999999998 C 342.90000000000003 97.79999999999998 335.70000000000005 99.09999999999998 327.1 99.09999999999998 C 311.90000000000003 99.09999999999998 301.40000000000003 96.19999999999997 295.5 90.29999999999998 C 289.59999999999997 84.39999999999999 286.1 77 285.4 68 z M 6.3 97.6 L 6.3 8.2 L 52.4 8.2 C 60.9 8.2 67.5 8.899999999999999 72 10.399999999999999 C 76.4 11.799999999999999 80.3 14.7 82.9 18.599999999999998 C 85.80000000000001 22.9 87.2 27.9 87.10000000000001 33.099999999999994 C 87.4 41.89999999999999 82.9 50.3 75.2 54.699999999999996 C 72.2 56.4 68.9 57.599999999999994 65.5 58.199999999999996 C 68 58.9 70.5 60.099999999999994 72.7 61.49999999999999 C 74.4 62.89999999999999 75.8 64.5 77.10000000000001 66.19999999999999 C 78.60000000000001 67.89999999999999 79.9 69.79999999999998 81.00000000000001 71.79999999999998 L 94.40000000000002 97.69999999999999 L 63 97.69999999999999 L 48.2 70.2 C 46.300000000000004 66.7 44.7 64.4 43.2 63.300000000000004 C 41.2 61.900000000000006 38.800000000000004 61.2 36.400000000000006 61.2 L 34 61.2 L 34 97.5 L 6.3 97.5 z M 34 44.4 L 45.7 44.4 C 48.2 44.199999999999996 50.6 43.8 53 43.199999999999996 C 54.8 42.9 56.4 41.9 57.5 40.4 C 60.2 36.8 59.8 31.7 56.5 28.599999999999998 C 54.7 27.099999999999998 51.2 26.299999999999997 46.2 26.299999999999997 L 34 26.299999999999997 L 34 44.4 z M 0 174.2 L 26.3 172.5 C 26.900000000000002 176.8 28 180 29.8 182.3 C 32.6 185.9 36.7 187.8 42 187.8 C 45.9 187.8 49 186.9 51.1 185 C 53.1 183.4 54.300000000000004 181.1 54.300000000000004 178.6 C 54.300000000000004 176.2 53.2 173.9 51.300000000000004 172.4 C 49.300000000000004 170.6 44.6 168.8 37.10000000000001 167.20000000000002 C 25.000000000000007 164.50000000000003 16.300000000000008 160.9 11.20000000000001 156.3 C 6.10000000000001 152 3.20000000000001 145.70000000000002 3.40000000000001 139 C 3.40000000000001 134.4 4.80000000000001 129.8 7.40000000000001 126 C 10.40000000000001 121.7 14.50000000000001 118.3 19.40000000000001 116.4 C 24.70000000000001 114.10000000000001 32.10000000000001 112.9 41.400000000000006 112.9 C 52.800000000000004 112.9 61.50000000000001 115 67.5 119.30000000000001 C 73.5 123.60000000000002 77 130.3 78.1 139.60000000000002 L 52.099999999999994 141.10000000000002 C 51.39999999999999 137.10000000000002 49.99999999999999 134.20000000000002 47.699999999999996 132.3 C 45.49999999999999 130.4 42.4 129.5 38.5 129.60000000000002 C 35.3 129.60000000000002 32.9 130.3 31.3 131.70000000000002 C 29.7 132.9 28.8 134.70000000000002 28.900000000000002 136.70000000000002 C 28.900000000000002 138.20000000000002 29.700000000000003 139.60000000000002 30.900000000000002 140.50000000000003 C 32.2 141.70000000000002 35.300000000000004 142.80000000000004 40.2 143.80000000000004 C 52.300000000000004 146.40000000000003 60.900000000000006 149.00000000000003 66.2 151.70000000000005 C 71.5 154.40000000000003 75.3 157.70000000000005 77.60000000000001 161.60000000000005 C 80.00000000000001 165.60000000000005 81.2 170.20000000000005 81.2 174.80000000000004 C 81.2 180.40000000000003 79.5 185.90000000000003 76.4 190.60000000000005 C 73.10000000000001 195.50000000000006 68.5 199.30000000000004 63.10000000000001 201.60000000000005 C 57.400000000000006 204.10000000000005 50.20000000000001 205.40000000000006 41.60000000000001 205.40000000000006 C 26.40000000000001 205.40000000000006 15.90000000000001 202.50000000000006 10.000000000000007 196.60000000000005 C 4.100000000000007 190.60000000000005 0.8000000000000078 183.20000000000005 7.105427357601002e-15 174.20000000000005 z" stroke-linecap="round" />
</g>
<g transform="matrix(1 0 0 1 436.25 623.38)"  >
<path style="stroke: none; stroke-width: 1; stroke-dasharray: none; stroke-linecap: butt; stroke-dashoffset: 0; stroke-linejoin: miter; stroke-miterlimit: 4; fill: rgb(255,255,255); fill-rule: nonzero; opacity: 1;" vector-effect="non-scaling-stroke"  transform=" translate(-172.65, -159.1)" d="M 133 167.2 L 157.2 174.5 C 155.89999999999998 180.6 153.2 186.4 149.5 191.5 C 146.1 196 141.6 199.5 136.5 201.8 C 131.3 204.10000000000002 124.7 205.3 116.7 205.3 C 107 205.3 99 203.9 92.9 201.10000000000002 C 86.7 198.3 81.4 193.3 76.9 186.20000000000002 C 72.4 179.10000000000002 70.2 170.00000000000003 70.2 158.9 C 70.2 144.1 74.10000000000001 132.70000000000002 82 124.80000000000001 C 89.89999999999999 116.9 101 112.9 115.4 112.9 C 126.7 112.9 135.5 115.2 142 119.7 C 148.4 124.3 153.2 131.3 156.4 140.7 L 132 146.1 C 131.4 144 130.5 141.9 129.3 140.1 C 127.80000000000001 138 125.9 136.4 123.60000000000001 135.2 C 121.30000000000001 134 118.7 133.5 116.10000000000001 133.5 C 109.80000000000001 133.5 105.00000000000001 136 101.7 141.1 C 99.2 144.79999999999998 97.9 150.7 97.9 158.7 C 97.9 168.6 99.4 175.39999999999998 102.4 179.1 C 105.4 182.79999999999998 109.60000000000001 184.6 115.10000000000001 184.6 C 120.4 184.6 124.4 183.1 127.10000000000001 180.2 C 129.8 177.1 131.8 172.79999999999998 133 167.2 z M 189.5 114.39999999999999 L 217.1 114.39999999999999 L 217.1 145.7 L 247.29999999999998 145.7 L 247.29999999999998 114.39999999999999 L 275.09999999999997 114.39999999999999 L 275.09999999999997 203.8 L 247.29999999999995 203.8 L 247.29999999999995 167.60000000000002 L 217.09999999999997 167.60000000000002 L 217.09999999999997 203.8 L 189.49999999999997 203.8 L 189.49999999999997 114.4 z" stroke-linecap="round" />
</g>
<g transform="matrix(1 0 0 1 641.25 622.83)"  >
<path style="stroke: none; stroke-width: 0; stroke-dasharray: none; stroke-linecap: butt; stroke-dashoffset: 0; stroke-linejoin: miter; stroke-miterlimit: 4; fill: rgb(255,255,255); fill-rule: nonzero; opacity: 1;" vector-effect="non-scaling-stroke"  transform=" translate(-378.15, -159.05)" d="M 271.3 159.1 C 271.3 144.5 275.40000000000003 133.1 283.5 125 C 291.6 116.9 303 112.8 317.5 112.8 C 332.4 112.8 343.8 116.8 351.9 124.8 C 359.99999999999994 132.8 364 144 364 158.4 C 364 168.9 362.2 177.4 358.7 184.1 C 355.3 190.7 350 196.1 343.5 199.7 C 336.8 203.39999999999998 328.5 205.29999999999998 318.6 205.29999999999998 C 308.5 205.29999999999998 300.20000000000005 203.7 293.6 200.49999999999997 C 286.8 197.09999999999997 281.20000000000005 191.79999999999998 277.5 185.29999999999998 C 273.4 178.29999999999998 271.3 169.6 271.3 159.1 z M 298.90000000000003 159.2 C 298.90000000000003 168.2 300.6 174.7 303.90000000000003 178.7 C 307.20000000000005 182.6 311.8 184.6 317.6 184.6 C 323.5 184.6 328.1 182.7 331.40000000000003 178.79999999999998 C 334.70000000000005 174.89999999999998 336.3 167.99999999999997 336.3 157.99999999999997 C 336.3 149.59999999999997 334.6 143.39999999999998 331.2 139.59999999999997 C 327.8 135.69999999999996 323.2 133.79999999999995 317.4 133.79999999999995 C 312.29999999999995 133.59999999999997 307.4 135.79999999999995 304 139.69999999999996 C 300.6 143.59999999999997 298.9 150.09999999999997 298.9 159.19999999999996 z M 392.30000000000007 159.1 C 392.30000000000007 144.5 396.4000000000001 133.1 404.50000000000006 125 C 412.6000000000001 116.9 424.00000000000006 112.8 438.50000000000006 112.8 C 453.40000000000003 112.8 464.90000000000003 116.8 472.90000000000003 124.8 C 480.90000000000003 132.8 485 144 485 158.4 C 485 168.9 483.2 177.4 479.7 184.1 C 476.3 190.7 471 196.1 464.5 199.7 C 457.8 203.39999999999998 449.5 205.29999999999998 439.6 205.29999999999998 C 429.5 205.29999999999998 421.20000000000005 203.7 414.6 200.49999999999997 C 407.8 197.09999999999997 402.20000000000005 191.79999999999998 398.5 185.29999999999998 C 394.4 178.29999999999998 392.3 169.6 392.3 159.1 z M 419.9000000000001 159.2 C 419.9000000000001 168.2 421.6000000000001 174.7 424.9000000000001 178.7 C 428.2000000000001 182.6 432.80000000000007 184.6 438.6000000000001 184.6 C 444.50000000000006 184.6 449.1000000000001 182.7 452.4000000000001 178.79999999999998 C 455.7000000000001 174.89999999999998 457.30000000000007 167.99999999999997 457.30000000000007 157.99999999999997 C 457.30000000000007 149.59999999999997 455.6000000000001 143.39999999999998 452.20000000000005 139.59999999999997 C 448.80000000000007 135.69999999999996 444.20000000000005 133.79999999999995 438.40000000000003 133.79999999999995 C 433.3 133.59999999999997 428.3 135.79999999999995 425.00000000000006 139.69999999999996 C 421.6000000000001 143.59999999999997 419.90000000000003 150.09999999999997 419.90000000000003 159.19999999999996 z" stroke-linecap="round" />
</g>
<g transform="matrix(1 0 0 1 781 623.38)"  >
<path style="stroke: none; stroke-width: 1; stroke-dasharray: none; stroke-linecap: butt; stroke-dashoffset: 0; stroke-linejoin: miter; stroke-miterlimit: 4; fill: rgb(255,255,255); fill-rule: nonzero; opacity: 1;" vector-effect="non-scaling-stroke"  transform=" translate(-517.4, -159.1)" d="M 482.1 114.4 L 509.70000000000005 114.4 L 509.70000000000005 181.8 L 552.8000000000001 181.8 L 552.8000000000001 203.8 L 482 203.8 L 482 114.4 z" stroke-linecap="round" />
</g>
<g transform="matrix(0.8 -0.6 0.6 0.8 684.1 532.16)"  >
<ellipse style="stroke: none; stroke-width: 1; stroke-dasharray: none; stroke-linecap: butt; stroke-dashoffset: 0; stroke-linejoin: miter; stroke-miterlimit: 4; fill: rgb(255,255,255); fill-rule: nonzero; opacity: 1;" vector-effect="non-scaling-stroke"  cx="0" cy="0" rx="63" ry="51.8" />
</g>
<g transform="matrix(0.8 -0.6 0.6 0.8 684.4 532.65)" clip-path="url(#CLIPPATH_3)"  >
<clipPath id="CLIPPATH_3" >
	<ellipse transform="matrix(1 0 0 1 0.06 -0.57)" id="SVGID_2_" cx="0" cy="0" rx="63" ry="51.8" />
</clipPath>
<path style="stroke: none; stroke-width: 1; stroke-dasharray: none; stroke-linecap: butt; stroke-dashoffset: 0; stroke-linejoin: miter; stroke-miterlimit: 4; fill: rgb(255,255,255); fill-rule: nonzero; opacity: 1;" vector-effect="non-scaling-stroke"  transform=" translate(-420.8, -68.35)" d="M 330.9 -14.2 L 510.7 -14.2 L 510.7 150.9 L 330.9 150.9 z" stroke-linecap="round" />
</g>
<g transform="matrix(0.8 -0.6 0.6 0.8 684.1 532.16)" clip-path="url(#CLIPPATH_4)"  >
<clipPath id="CLIPPATH_4" >
	<path transform="matrix(1 0 0 1 -0.06 0.57) translate(-420.8, -68.35)" id="SVGID_4_" clip-path="url(#undefined)" d="M 330.9 -14.2 L 510.7 -14.2 L 510.7 150.9 L 330.9 150.9 z" stroke-linecap="round" />
</clipPath>
<ellipse style="stroke: none; stroke-width: 1; stroke-dasharray: none; stroke-linecap: butt; stroke-dashoffset: 0; stroke-linejoin: miter; stroke-miterlimit: 4; fill: rgb(255,255,255); fill-rule: nonzero; opacity: 1;" vector-effect="non-scaling-stroke"  cx="0" cy="0" rx="63" ry="51.8" />
</g>
<g transform="matrix(0.8 -0.6 0.6 0.8 684.39 533.15)" clip-path="url(#CLIPPATH_5)"  >
<clipPath id="CLIPPATH_5" >
	<ellipse transform="matrix(1 0 0 1 0.37 -0.97)" id="SVGID_6_" clip-path="url(#undefined)" cx="0" cy="0" rx="63" ry="51.8" />
</clipPath>
<path style="stroke: none; stroke-width: 1; stroke-dasharray: none; stroke-linecap: butt; stroke-dashoffset: 0; stroke-linejoin: miter; stroke-miterlimit: 4; fill: rgb(255,255,255); fill-rule: nonzero; opacity: 1;" vector-effect="non-scaling-stroke"  transform=" translate(-420.75, -68.85)" d="M 357.8 17 L 483.70000000000005 17 L 483.70000000000005 120.7 L 357.8 120.7 z" stroke-linecap="round" />
</g>
<g transform="matrix(0.8 -0.6 0.6 0.8 684.1 532.16)" clip-path="url(#CLIPPATH_6)"  >
<clipPath id="CLIPPATH_6" >
	<path transform="matrix(1 0 0 1 -0.37 0.97) translate(-420.75, -68.85)" id="SVGID_8_" clip-path="url(#undefined)" d="M 357.8 17 L 483.70000000000005 17 L 483.70000000000005 120.7 L 357.8 120.7 z" stroke-linecap="round" />
</clipPath>
<ellipse style="stroke: rgb(0,0,0); stroke-width: 4; stroke-dasharray: none; stroke-linecap: butt; stroke-dashoffset: 0; stroke-linejoin: miter; stroke-miterlimit: 10; fill: rgb(255,255,255); fill-rule: nonzero; opacity: 1;" vector-effect="non-scaling-stroke"  cx="0" cy="0" rx="63" ry="51.8" />
</g>
<g transform="matrix(0.8 -0.6 0.6 0.8 684.39 533.15)" clip-path="url(#CLIPPATH_7)"  >
<clipPath id="CLIPPATH_7" >
	<path transform="matrix(1 0 0 1 0 0) translate(-420.75, -68.85)" id="SVGID_8_" clip-path="url(#undefined)" d="M 357.8 17 L 483.70000000000005 17 L 483.70000000000005 120.7 L 357.8 120.7 z" stroke-linecap="round" />
</clipPath>
<path style="stroke: rgb(0,0,0); stroke-width: 4; stroke-dasharray: none; stroke-linecap: butt; stroke-dashoffset: 0; stroke-linejoin: miter; stroke-miterlimit: 10; fill: none; fill-rule: nonzero; opacity: 1;" vector-effect="non-scaling-stroke"  transform=" translate(-420.75, -68.85)" d="M 357.8 17 L 483.70000000000005 17 L 483.70000000000005 120.7 L 357.8 120.7 z" stroke-linecap="round" />
</g>
<g transform="matrix(0.8 -0.6 0.6 0.8 684.1 532.16)" clip-path="url(#CLIPPATH_8)"  >
<clipPath id="CLIPPATH_8" >
	<ellipse transform="matrix(1 0 0 1 0 0)" id="SVGID_6_" clip-path="url(#undefined)" cx="0" cy="0" rx="63" ry="51.8" />
</clipPath>
<ellipse style="stroke: rgb(0,0,0); stroke-width: 4; stroke-dasharray: none; stroke-linecap: butt; stroke-dashoffset: 0; stroke-linejoin: miter; stroke-miterlimit: 10; fill: none; fill-rule: nonzero; opacity: 1;" vector-effect="non-scaling-stroke"  cx="0" cy="0" rx="63" ry="51.8" />
</g>
<g transform="matrix(0.8 -0.6 0.6 0.8 684.39 533.15)" clip-path="url(#CLIPPATH_9)"  >
<clipPath id="CLIPPATH_9" >
	<ellipse transform="matrix(1 0 0 1 0.37 -0.97)" id="SVGID_6_" clip-path="url(#undefined)" cx="0" cy="0" rx="63" ry="51.8" />
</clipPath>
<path style="stroke: none; stroke-width: 1; stroke-dasharray: none; stroke-linecap: butt; stroke-dashoffset: 0; stroke-linejoin: miter; stroke-miterlimit: 4; fill: rgb(255,255,255); fill-rule: nonzero; opacity: 1;" vector-effect="non-scaling-stroke"  transform=" translate(-420.75, -68.85)" d="M 357.8 17 L 483.70000000000005 17 L 483.70000000000005 120.7 L 357.8 120.7 z" stroke-linecap="round" />
</g>
<g transform="matrix(0.8 -0.6 0.6 0.8 684.1 532.16)" clip-path="url(#CLIPPATH_10)"  >
<clipPath id="CLIPPATH_10" >
	<path transform="matrix(1 0 0 1 -0.37 0.97) translate(-420.75, -68.85)" id="SVGID_10_" clip-path="url(#undefined)" d="M 357.8 17 L 483.70000000000005 17 L 483.70000000000005 120.7 L 357.8 120.7 z" stroke-linecap="round" />
</clipPath>
<ellipse style="stroke: rgb(0,0,0); stroke-width: 4; stroke-dasharray: none; stroke-linecap: butt; stroke-dashoffset: 0; stroke-linejoin: miter; stroke-miterlimit: 10; fill: rgb(255,255,255); fill-rule: nonzero; opacity: 1;" vector-effect="non-scaling-stroke"  cx="0" cy="0" rx="63" ry="51.8" />
</g>
<g transform="matrix(0.8 -0.6 0.6 0.8 684.39 533.15)" clip-path="url(#CLIPPATH_11)"  >
<clipPath id="CLIPPATH_11" >
	<path transform="matrix(1 0 0 1 0 0) translate(-420.75, -68.85)" id="SVGID_10_" clip-path="url(#undefined)" d="M 357.8 17 L 483.70000000000005 17 L 483.70000000000005 120.7 L 357.8 120.7 z" stroke-linecap="round" />
</clipPath>
<path style="stroke: rgb(0,0,0); stroke-width: 4; stroke-dasharray: none; stroke-linecap: butt; stroke-dashoffset: 0; stroke-linejoin: miter; stroke-miterlimit: 10; fill: none; fill-rule: nonzero; opacity: 1;" vector-effect="non-scaling-stroke"  transform=" translate(-420.75, -68.85)" d="M 357.8 17 L 483.70000000000005 17 L 483.70000000000005 120.7 L 357.8 120.7 z" stroke-linecap="round" />
</g>
<g transform="matrix(0.8 -0.6 0.6 0.8 684.4 532.65)" clip-path="url(#CLIPPATH_12)"  >
<clipPath id="CLIPPATH_12" >
	<ellipse transform="matrix(1 0 0 1 0.06 -0.57)" id="SVGID_6_" clip-path="url(#undefined)" cx="0" cy="0" rx="63" ry="51.8" />
</clipPath>
<path style="stroke: rgb(0,0,0); stroke-width: 4; stroke-dasharray: none; stroke-linecap: butt; stroke-dashoffset: 0; stroke-linejoin: miter; stroke-miterlimit: 10; fill: none; fill-rule: nonzero; opacity: 1;" vector-effect="non-scaling-stroke"  transform=" translate(-420.8, -68.35)" d="M 330.9 -14.2 L 510.7 -14.2 L 510.7 150.9 L 330.9 150.9 z" stroke-linecap="round" />
</g>
<g transform="matrix(0.8 -0.6 0.6 0.8 684.1 532.16)" clip-path="url(#CLIPPATH_13)"  >
<clipPath id="CLIPPATH_13" >
	<path transform="matrix(1 0 0 1 -0.06 0.57) translate(-420.8, -68.35)" id="SVGID_4_" clip-path="url(#undefined)" d="M 330.9 -14.2 L 510.7 -14.2 L 510.7 150.9 L 330.9 150.9 z" stroke-linecap="round" />
</clipPath>
<ellipse style="stroke: rgb(255,255,255); stroke-width: 4; stroke-dasharray: none; stroke-linecap: butt; stroke-dashoffset: 0; stroke-linejoin: miter; stroke-miterlimit: 10; fill: rgb(0,0,0); fill-rule: nonzero; opacity: 1;" vector-effect="non-scaling-stroke"  cx="0" cy="0" rx="63" ry="51.8" />
</g>
<g transform="matrix(1 0 0 1 686.4 532.01)" clip-path="url(#CLIPPATH_14)"  >
<clipPath id="CLIPPATH_14" >
	<path transform="matrix(0.8 -0.6 0.6 0.8 -2 0.64) translate(-420.8, -68.35)" id="SVGID_4_" clip-path="url(#undefined)" d="M 330.9 -14.2 L 510.7 -14.2 L 510.7 150.9 L 330.9 150.9 z" stroke-linecap="round" />
</clipPath>
<path style="stroke: none; stroke-width: 1; stroke-dasharray: none; stroke-linecap: butt; stroke-dashoffset: 0; stroke-linejoin: miter; stroke-miterlimit: 4; fill: rgb(255,255,255); fill-rule: nonzero; opacity: 1;" vector-effect="non-scaling-stroke"  transform=" translate(-422.8, -67.73)" d="M 392.4 61.3 L 402.4 54.3 L 414.7 71.8 C 416.8 74.6 418.4 77.6 419.59999999999997 80.89999999999999 C 420.29999999999995 83.39999999999999 420.09999999999997 86.1 419.09999999999997 88.49999999999999 C 417.79999999999995 91.49999999999999 415.7 93.99999999999999 412.9 95.79999999999998 C 409.59999999999997 98.09999999999998 406.79999999999995 99.39999999999998 404.4 99.79999999999998 C 402.09999999999997 100.19999999999999 399.7 99.79999999999998 397.5 98.79999999999998 C 395.1 97.59999999999998 393 95.89999999999998 391.4 93.69999999999999 L 400 85.69999999999999 C 400.7 86.79999999999998 401.6 87.79999999999998 402.6 88.6 C 403.3 89.1 404.1 89.39999999999999 405 89.39999999999999 C 405.7 89.39999999999999 406.4 89.1 406.9 88.69999999999999 C 407.9 88.1 408.59999999999997 86.89999999999999 408.5 85.69999999999999 C 408.2 83.99999999999999 407.5 82.29999999999998 406.4 80.99999999999999 L 392.4 61.29999999999998 z M 422.4 72.39999999999999 L 431.5 65.19999999999999 C 432.5 66.39999999999999 433.8 67.29999999999998 435.2 67.79999999999998 C 437.2 68.39999999999998 439.3 67.99999999999999 441 66.69999999999999 C 442.2 65.89999999999999 443.2 64.79999999999998 443.6 63.39999999999999 C 444.20000000000005 61.599999999999994 443.20000000000005 59.599999999999994 441.40000000000003 58.99999999999999 C 441.1 58.89999999999999 440.8 58.79999999999999 440.50000000000006 58.79999999999999 C 439.30000000000007 58.69999999999999 437.20000000000005 59.19999999999999 434.1000000000001 60.49999999999999 C 429.00000000000006 62.599999999999994 425.00000000000006 63.39999999999999 422.00000000000006 63.099999999999994 C 419.1000000000001 62.8 416.40000000000003 61.3 414.80000000000007 58.8 C 413.6000000000001 57.099999999999994 413.00000000000006 55.099999999999994 412.9000000000001 53.099999999999994 C 412.9000000000001 50.8 413.5000000000001 48.49999999999999 414.80000000000007 46.599999999999994 C 416.70000000000005 43.89999999999999 419.00000000000006 41.599999999999994 421.80000000000007 39.8 C 426.00000000000006 36.9 429.70000000000005 35.5 432.9000000000001 35.5 C 436.1000000000001 35.5 439.1000000000001 37 441.9000000000001 40.1 L 432.9000000000001 47.2 C 431.1000000000001 44.900000000000006 427.7000000000001 44.400000000000006 425.4000000000001 46.2 L 425.1000000000001 46.5 C 424.1000000000001 47.1 423.4000000000001 48 423.00000000000006 49.1 C 422.70000000000005 49.9 422.90000000000003 50.800000000000004 423.40000000000003 51.5 C 423.8 52 424.40000000000003 52.4 425.1 52.4 C 425.90000000000003 52.5 427.3 52.1 429.3 51.199999999999996 C 434.3 49.099999999999994 438.1 47.9 440.7 47.49999999999999 C 442.9 47.099999999999994 445.2 47.29999999999999 447.3 48.199999999999996 C 449.2 48.99999999999999 450.8 50.4 451.90000000000003 52.099999999999994 C 453.3 54.099999999999994 454.1 56.49999999999999 454.20000000000005 58.99999999999999 C 454.30000000000007 61.599999999999994 453.6 64.1 452.20000000000005 66.3 C 450.40000000000003 69 448.1 71.3 445.40000000000003 73.1 C 439.90000000000003 76.89999999999999 435.40000000000003 78.5 431.8 77.89999999999999 C 427.90000000000003 77.3 424.7 75.3 422.40000000000003 72.39999999999999 z" stroke-linecap="round" />
</g>
</svg>